# xmcd CD database file
#
# Track frame offsets:
#	150
#	21483
#	54560
#	72958
#	98760
#	127595
#	147233
#	175630
#	198013
#
# Disc length: 2849 seconds
#
# Revision: 1
# Processed by: cddbd v1.4PL0 Copyright (c) Steve Scherf et al.
# Submitted via: CDex 1.50beta10
#
DISCID=710b1f09
DTITLE=Simply Red - The Colour Red [CD 2)
DYEAR=1986
DGENRE=Blues
TTITLE0=I Won't Feel Bad
TTITLE1=Suffer
TTITLE2=Infidelity
TTITLE3=Money's Too Tight (To Mention)
TTITLE4=Come To My Aid
TTITLE5=Instrumental (Jericho Instrumental )
TTITLE6=Heaven
TTITLE7=Move On Out
TTITLE8=Look At You Now
EXTD=Recorded Live in Montreux 1986 YEAR: 1986
EXTT0=
EXTT1=
EXTT2=
EXTT3=
EXTT4=
EXTT5=
EXTT6=
EXTT7=
EXTT8=
PLAYORDER=
